<svg width="76" height="49" viewBox="0 0 76 49" fill="none" xmlns="http://www.w3.org/2000/svg">
<path d="M18.5945 19.634V13.208H12.5085V10.352H18.5945V3.926H21.5525V10.352H27.6385V13.208H21.5525V19.634H18.5945ZM36.9782 23.408C35.2328 23.408 33.7595 23.1133 32.5582 22.524C31.3795 21.912 30.3935 21.2093 29.6002 20.416L31.4022 17.9C32.0595 18.512 32.7962 19.056 33.6122 19.532C34.4282 19.9853 35.3802 20.212 36.4682 20.212C37.6922 20.212 38.6895 19.8493 39.4602 19.124C40.2535 18.3987 40.6502 17.3787 40.6502 16.064C40.6502 14.772 40.2875 13.7747 39.5622 13.072C38.8368 12.3693 37.8735 12.018 36.6722 12.018C35.9695 12.018 35.3802 12.12 34.9042 12.324C34.4282 12.5053 33.8615 12.8113 33.2042 13.242L31.3342 12.052L31.9802 1.376H43.5402V4.674H35.3802L34.9382 9.91C35.3915 9.68333 35.8335 9.51333 36.2642 9.4C36.7175 9.264 37.2275 9.196 37.7942 9.196C38.7235 9.196 39.5962 9.332 40.4122 9.604C41.2508 9.876 41.9762 10.2953 42.5882 10.862C43.2002 11.406 43.6875 12.1087 44.0502 12.97C44.4128 13.8087 44.5942 14.806 44.5942 15.962C44.5942 17.1407 44.3788 18.1947 43.9482 19.124C43.5402 20.0533 42.9848 20.8353 42.2822 21.47C41.5795 22.1047 40.7635 22.592 39.8342 22.932C38.9275 23.2493 37.9755 23.408 36.9782 23.408ZM54.9198 23.408C52.6532 23.408 50.8625 22.4447 49.5478 20.518C48.2332 18.5687 47.5758 15.758 47.5758 12.086C47.5758 8.414 48.2332 5.64867 49.5478 3.79C50.8625 1.90867 52.6532 0.968 54.9198 0.968C57.1865 0.968 58.9772 1.90867 60.2918 3.79C61.6065 5.67133 62.2638 8.43667 62.2638 12.086C62.2638 15.758 61.6065 18.5687 60.2918 20.518C58.9772 22.4447 57.1865 23.408 54.9198 23.408ZM54.9198 20.348C55.4412 20.348 55.9172 20.212 56.3478 19.94C56.8012 19.6453 57.1865 19.1693 57.5038 18.512C57.8212 17.8547 58.0705 17.0047 58.2518 15.962C58.4332 14.9193 58.5238 13.6273 58.5238 12.086C58.5238 10.5673 58.4332 9.298 58.2518 8.278C58.0705 7.23533 57.8212 6.39667 57.5038 5.762C57.1865 5.12733 56.8012 4.68533 56.3478 4.436C55.9172 4.164 55.4412 4.028 54.9198 4.028C54.3985 4.028 53.9112 4.164 53.4578 4.436C53.0272 4.68533 52.6532 5.12733 52.3358 5.762C52.0185 6.39667 51.7692 7.23533 51.5878 8.278C51.4065 9.298 51.3158 10.5673 51.3158 12.086C51.3158 13.6273 51.4065 14.9193 51.5878 15.962C51.7692 17.0047 52.0185 17.8547 52.3358 18.512C52.6532 19.1693 53.0272 19.6453 53.4578 19.94C53.9112 20.212 54.3985 20.348 54.9198 20.348ZM0.0552344 48H2.37523V42.42H4.59523C7.79523 42.42 10.1352 40.94 10.1352 37.72C10.1352 34.4 7.79523 33.26 4.51523 33.26H0.0552344V48ZM2.37523 40.56V35.14H4.29523C6.63523 35.14 7.85523 35.78 7.85523 37.72C7.85523 39.66 6.73523 40.56 4.37523 40.56H2.37523ZM12.8045 48H15.1045V41.14C15.7845 39.4 16.8645 38.78 17.7645 38.78C18.2045 38.78 18.4845 38.84 18.8645 38.96L19.2845 36.96C18.9445 36.8 18.5845 36.72 18.0445 36.72C16.8645 36.72 15.7045 37.56 14.9245 38.98H14.8645L14.6845 37H12.8045V48ZM25.1732 48.26C27.8932 48.26 30.3532 46.16 30.3532 42.5C30.3532 38.84 27.8932 36.72 25.1732 36.72C22.4532 36.72 19.9932 38.84 19.9932 42.5C19.9932 46.16 22.4532 48.26 25.1732 48.26ZM25.1732 46.38C23.4532 46.38 22.3732 44.84 22.3732 42.5C22.3732 40.18 23.4532 38.62 25.1732 38.62C26.9132 38.62 27.9932 40.18 27.9932 42.5C27.9932 44.84 26.9132 46.38 25.1732 46.38ZM36.8584 48.26C38.0984 48.26 39.2384 47.6 40.0584 46.76H40.1384L40.3184 48H42.1984V32.06H39.8984V36.14L39.9984 37.96C39.0984 37.2 38.2984 36.72 37.0384 36.72C34.5784 36.72 32.3184 38.94 32.3184 42.5C32.3184 46.16 34.0984 48.26 36.8584 48.26ZM37.3984 46.36C35.6784 46.36 34.6984 44.98 34.6984 42.48C34.6984 40.1 35.9384 38.64 37.4784 38.64C38.2984 38.64 39.0784 38.9 39.8984 39.64V45.02C39.0984 45.94 38.3184 46.36 37.3984 46.36ZM50.056 48.26C52.776 48.26 55.236 46.16 55.236 42.5C55.236 38.84 52.776 36.72 50.056 36.72C47.336 36.72 44.876 38.84 44.876 42.5C44.876 46.16 47.336 48.26 50.056 48.26ZM50.056 46.38C48.336 46.38 47.256 44.84 47.256 42.5C47.256 40.18 48.336 38.62 50.056 38.62C51.796 38.62 52.876 40.18 52.876 42.5C52.876 44.84 51.796 46.38 50.056 46.38ZM61.1724 48.26C61.9724 48.26 62.7124 48.06 63.3324 47.86L62.9124 46.16C62.5924 46.3 62.1124 46.42 61.7324 46.42C60.5924 46.42 60.1324 45.74 60.1324 44.42V38.84H62.9924V37H60.1324V33.96H58.2124L57.9524 37L56.2324 37.12V38.84H57.8324V44.4C57.8324 46.72 58.6924 48.26 61.1724 48.26ZM68.6529 48.26C69.4529 48.26 70.1929 48.06 70.8129 47.86L70.3929 46.16C70.0729 46.3 69.5929 46.42 69.2129 46.42C68.0729 46.42 67.6129 45.74 67.6129 44.42V38.84H70.4729V37H67.6129V33.96H65.6929L65.4329 37L63.7129 37.12V38.84H65.3129V44.4C65.3129 46.72 66.1729 48.26 68.6529 48.26ZM72.8826 48H75.1826V37H72.8826V48ZM74.0226 34.94C74.8626 34.94 75.4626 34.4 75.4626 33.56C75.4626 32.74 74.8626 32.2 74.0226 32.2C73.1826 32.2 72.6026 32.74 72.6026 33.56C72.6026 34.4 73.1826 34.94 74.0226 34.94Z" fill="white"/>
</svg>
